<svg width="80" height="80" viewBox="0 0 80 80" fill="none" xmlns="http://www.w3.org/2000/svg">
<circle cx="40" cy="40" r="40" fill="#651FFF"/>
<g clip-path="url(#clip0_47_148)">
<path d="M26.9437 21.7337C30.9164 17.7632 37.357 17.7632 41.3226 21.7337L49.282 29.6291C53.1907 33.5385 53.1907 40.0354 49.282 43.9447C45.7664 47.4604 40.1625 47.9807 36.1195 45.0908L36.007 45.0135C35.0015 44.2893 34.7625 42.883 35.4867 41.8775C36.2109 40.865 37.6172 40.626 38.6226 41.3502L38.7351 41.4275C40.9922 43.0377 44.0789 42.7846 46.0406 40.8229C48.2484 38.615 48.2484 35.0221 46.0406 32.8072L38.1445 24.9182C35.9929 22.7026 32.3437 22.7026 30.1289 24.9182C28.1672 26.8729 27.914 29.9666 29.5242 32.2166L29.6648 32.3291C30.3257 33.3416 30.0937 34.7479 29.0812 35.465C28.0687 36.1893 26.6625 35.9572 25.9382 34.9447L25.8609 34.8322C22.9711 30.726 23.4351 25.2486 26.9437 21.7337Z" fill="white"/>
<path opacity="0.4" d="M54.0535 58.2673C50.0836 62.2399 43.643 62.2399 39.6774 58.2673L31.7813 50.3712C27.8086 46.3985 27.8086 39.9649 31.7813 35.9923C35.2969 32.4766 40.8375 32.0196 44.8805 34.9094L44.993 34.9868C45.9985 35.6477 46.2375 37.054 45.5133 38.1227C44.8524 39.1352 43.4461 39.3743 42.3774 38.6501L42.2649 38.5727C40.0711 36.9626 36.9211 37.2157 34.9594 39.1774C32.7516 41.3852 32.7516 44.9782 34.9594 47.193L42.8555 55.0821C45.0704 57.2969 48.7196 57.2969 50.8711 55.0821C52.8307 53.1274 53.0867 50.0337 51.4758 47.7837L51.3985 47.6712C50.6743 46.6587 50.9696 45.2524 51.9202 44.5352C52.9313 43.811 54.3368 44.043 55.059 45.0555L55.1377 45.168C58.0268 49.211 57.5684 54.7516 54.0535 58.2673Z" fill="white"/>
</g>
<defs>
<clipPath id="clip0_47_148">
<rect width="45" height="36" fill="white" transform="translate(58.5 17.5) rotate(90)"/>
</clipPath>
</defs>
</svg>
